<svg width="1549" height="503" viewBox="0 0 1549 503" fill="none" xmlns="http://www.w3.org/2000/svg">
<rect width="1549" height="503" rx="20" fill="white"/>
<path d="M398.334 316.9C400.42 317.128 402 318.889 402 320.988V320.988C402 323.259 400.159 325.1 397.888 325.1H349.116C346.843 325.1 345 323.257 345 320.984V320.984C345 318.887 346.577 317.125 348.661 316.893L361.2 315.5C362.065 315.421 362.837 315.327 363.517 315.218C365.202 314.946 366.834 314.199 367.761 312.767C368.088 312.262 368.401 311.673 368.7 311C369.7 309 370.9 305.6 372.3 300.8L427.297 130.109C429.027 124.74 434.024 121.1 439.665 121.1V121.1C445.292 121.1 450.279 124.721 452.021 130.072L507.6 300.8C509 305.6 510.1 309 510.9 311C511.289 311.701 511.678 312.31 512.068 312.829C513.092 314.194 514.696 314.952 516.379 315.236C516.984 315.338 517.657 315.426 518.4 315.5L531.234 316.9C533.32 317.128 534.9 318.889 534.9 320.988V320.988C534.9 323.259 533.059 325.1 530.788 325.1H466.112C463.841 325.1 462 323.259 462 320.988V320.988C462 318.889 463.58 317.128 465.666 316.9L478.5 315.5C481.7 315.1 483.4 314.3 483.6 313.1C484 311.7 483.1 307.6 480.9 300.8L475.723 284.639C471.479 271.389 459.161 262.4 445.248 262.4H418.752C404.839 262.4 392.521 271.389 388.277 284.639L383.1 300.8C381.755 304.957 380.859 308.105 380.411 310.244C380.017 312.123 380.488 314.181 382.299 314.817C383.136 315.11 384.203 315.338 385.5 315.5L398.334 316.9ZM408.694 220.816C403.607 236.622 415.395 252.8 432 252.8V252.8C448.605 252.8 460.393 236.622 455.306 220.816V220.816C448.019 198.172 415.981 198.172 408.694 220.816V220.816Z" fill="black"/>
<path d="M548.329 185.05C546.149 184.852 544.479 183.023 544.479 180.834V180.834C544.479 178.495 546.374 176.6 548.713 176.6H584.705C588.004 176.6 590.679 179.275 590.679 182.574V182.574C590.679 188.326 598.366 191.006 602.596 187.109C605.624 184.32 608.651 182.017 611.679 180.2C618.879 175.8 626.179 173.6 633.579 173.6C639.979 173.6 645.979 175.5 651.579 179.3C655.031 181.642 658.141 184.859 660.909 188.949C664.068 193.618 662.033 199.788 657.199 202.688V202.688C651.39 206.173 644.139 203.415 639.893 198.137C638.639 196.578 637.335 195.299 635.979 194.3C632.179 191.5 627.979 190.1 623.379 190.1C618.379 190.1 613.379 191.7 608.379 194.9C605.196 197.022 601.75 200.375 598.039 204.959C593.993 209.958 592.179 216.34 592.179 222.771V300.8C592.179 307.8 592.479 312 593.079 313.4C593.679 314.6 595.579 315.3 598.779 315.5L617.547 317.001C619.654 317.17 621.279 318.93 621.279 321.044V321.044C621.279 323.284 619.463 325.1 617.223 325.1H548.591C546.32 325.1 544.479 323.259 544.479 320.988V320.988C544.479 318.889 546.059 317.128 548.145 316.9L560.979 315.5C564.179 315.1 566.079 314.3 566.679 313.1C567.279 311.9 567.579 307.8 567.579 300.8V200.9C567.579 193.9 567.279 189.8 566.679 188.6C566.079 187.4 564.179 186.6 560.979 186.2L548.329 185.05Z" fill="black"/>
<path d="M768.037 292.541C772.068 293.626 774.526 297.778 773.091 301.698C770.167 309.686 766.208 315.787 761.215 320C754.815 325.4 746.615 328.1 736.615 328.1C727.015 328.1 719.215 326 713.215 321.8C707.215 317.4 702.815 311.7 700.015 304.7C697.215 297.7 695.815 290.4 695.815 282.8V200.9C695.815 196.264 695.683 192.899 695.42 190.807C695.231 189.305 694.653 187.737 693.265 187.132C692.31 186.716 690.96 186.405 689.215 186.2L676.565 185.05C674.385 184.852 672.715 183.023 672.715 180.834V180.834C672.715 178.495 674.61 176.6 676.949 176.6H684.265C690.644 176.6 695.815 171.429 695.815 165.05V147.312C695.815 141.481 699.909 136.451 705.618 135.268V135.268C713.253 133.685 720.415 139.514 720.415 147.312V156.677C720.415 167.68 729.335 176.6 740.338 176.6H764.515C767.166 176.6 769.315 178.749 769.315 181.4V181.4C769.315 184.051 767.166 186.2 764.515 186.2H744.865C731.361 186.2 720.415 197.147 720.415 210.65V285.2C720.415 297.8 722.115 306.5 725.515 311.3C729.115 316.1 733.815 318.5 739.615 318.5C745.415 318.5 749.815 316.3 752.815 311.9C755.025 308.861 756.806 304.486 758.158 298.774C759.212 294.32 763.617 291.351 768.037 292.541V292.541Z" fill="black"/>
<path d="M827.43 143C822.63 143 818.63 141.5 815.43 138.5C812.43 135.3 810.93 131.2 810.93 126.2C810.93 121.4 812.43 117.5 815.43 114.5C818.63 111.5 822.63 110 827.43 110C832.23 110 836.13 111.5 839.13 114.5C842.33 117.5 843.93 121.4 843.93 126.2C843.93 131.2 842.33 135.3 839.13 138.5C836.13 141.5 832.23 143 827.43 143ZM796.181 185.05C794 184.852 792.33 183.023 792.33 180.834V180.834C792.33 178.495 794.226 176.6 796.564 176.6H816.18C829.352 176.6 840.03 187.278 840.03 200.45V300.8C840.03 307.8 840.33 311.9 840.93 313.1C841.53 314.3 843.43 315.1 846.63 315.5L859.464 316.9C861.55 317.128 863.13 318.889 863.13 320.988V320.988C863.13 323.259 861.289 325.1 859.018 325.1H796.443C794.172 325.1 792.33 323.259 792.33 320.988V320.988C792.33 318.889 793.911 317.128 795.997 316.9L808.83 315.5C812.03 315.1 813.93 314.3 814.53 313.1C815.13 311.9 815.43 307.8 815.43 300.8V200.9C815.43 193.9 815.13 189.8 814.53 188.6C813.93 187.4 812.03 186.6 808.83 186.2L796.181 185.05Z" fill="black"/>
<path d="M1021.78 342.5C1021.78 358.5 1015.88 370.7 1004.08 379.1C992.479 387.7 976.279 392 955.479 392C932.679 392 915.979 388 905.379 380C897.472 374.182 892.403 367.195 890.171 359.04C888.822 354.11 892.547 349.556 897.557 348.541V348.541C904.349 347.164 910.385 352.81 912.292 359.473C913.692 364.367 916.188 368.609 919.779 372.2C926.579 379 938.479 382.4 955.479 382.4C970.679 382.4 982.879 379.6 992.079 374C1001.48 368.4 1006.18 360.2 1006.18 349.4C1006.18 341.4 1003.48 335.4 998.079 331.4C992.679 327.4 983.779 325.4 971.379 325.4H935.679C922.279 325.4 912.879 322.6 907.479 317C902.079 311.2 899.379 304.8 899.379 297.8C899.379 292 900.779 286.6 903.579 281.6V281.6C908.384 273.272 907.389 261.023 901.168 253.693C900.118 252.456 899.122 251.158 898.179 249.8C893.179 242.4 890.679 233.5 890.679 223.1C890.679 212.1 893.179 203 898.179 195.8C903.379 188.4 910.179 182.9 918.579 179.3C927.179 175.5 936.679 173.6 947.079 173.6H952.179C958.791 173.6 964.969 174.323 970.714 175.768C977.892 177.574 985.489 178.252 992.487 175.839L1014.11 168.383C1019.81 166.418 1025.89 170.118 1026.76 176.083L1026.84 176.609C1027.65 182.139 1023.36 187.1 1017.78 187.1H1011.92C1005.47 187.1 1001.52 196.184 1004.08 202.1V202.1C1006.88 208.1 1008.28 215.1 1008.28 223.1C1008.28 233.7 1005.68 242.7 1000.48 250.1C995.479 257.5 988.779 263.1 980.379 266.9C971.979 270.5 962.579 272.3 952.179 272.3H947.079C943.679 272.3 940.379 272.1 937.179 271.7V271.7C931.206 270.953 924.69 271.545 920.679 276.033C919.746 277.077 918.946 278.133 918.279 279.2C916.479 282.4 915.579 285.7 915.579 289.1C915.579 293.1 916.979 296.3 919.779 298.7C922.779 301.1 927.479 302.3 933.879 302.3H972.879C988.679 302.3 1000.78 305.7 1009.18 312.5C1017.58 319.3 1021.78 329.3 1021.78 342.5ZM952.179 262.7C957.579 262.7 962.479 261.5 966.879 259.1C971.479 256.7 975.179 252.7 977.979 247.1C980.779 241.3 982.179 233.3 982.179 223.1C982.179 212.7 980.779 204.7 977.979 199.1C975.179 193.3 971.479 189.2 966.879 186.8C962.479 184.4 957.579 183.2 952.179 183.2H947.079C941.679 183.2 936.679 184.4 932.079 186.8C927.479 189.2 923.779 193.3 920.979 199.1C918.179 204.7 916.779 212.7 916.779 223.1C916.779 233.3 918.179 241.3 920.979 247.1C923.779 252.7 927.479 256.7 932.079 259.1C936.679 261.5 941.679 262.7 947.079 262.7H952.179Z" fill="black"/>
<path d="M1200.82 316.9C1202.91 317.128 1204.49 318.889 1204.49 320.988V320.988C1204.49 323.259 1202.65 325.1 1200.38 325.1H1164.27C1160.97 325.1 1158.29 322.425 1158.29 319.126V319.126C1158.29 313.374 1150.42 310.551 1145.99 314.215C1142.3 317.264 1138.4 319.792 1134.29 321.8C1125.49 326 1116.69 328.1 1107.89 328.1C1093.69 328.1 1082.59 323.6 1074.59 314.6C1066.79 305.4 1062.89 292.5 1062.89 275.9V200.9C1062.89 193.9 1062.59 189.8 1061.99 188.6C1061.39 187.4 1059.49 186.6 1056.29 186.2L1043.64 185.05C1041.46 184.852 1039.79 183.023 1039.79 180.834V180.834C1039.79 178.495 1041.69 176.6 1044.02 176.6H1063.64C1076.81 176.6 1087.49 187.278 1087.49 200.45V275.6C1087.49 290.4 1089.69 300.9 1094.09 307.1C1098.69 313.1 1105.29 316.1 1113.89 316.1C1120.29 316.1 1127.29 314.1 1134.89 310.1C1140.87 307.033 1146.56 301.79 1151.95 294.372C1155.35 289.703 1156.79 283.953 1156.79 278.181V200.9C1156.79 193.9 1156.49 189.8 1155.89 188.6C1155.29 187.2 1153.39 186.4 1150.19 186.2L1131.6 184.96C1129.4 184.814 1127.69 182.988 1127.69 180.785V180.785C1127.69 178.474 1129.56 176.6 1131.88 176.6H1154.54C1169.37 176.6 1181.39 188.621 1181.39 203.45V300.8C1181.39 307.8 1181.69 311.9 1182.29 313.1C1182.89 314.3 1184.79 315.1 1187.99 315.5L1200.82 316.9Z" fill="black"/>
</svg>
